<?xml version="1.0" encoding="UTF-8"?><svg id="Layer_1" xmlns="http://www.w3.org/2000/svg" viewBox="0 0 119 114"><defs><style>.cls-1{fill:#d11249;}</style></defs><path class="cls-1" d="M86.59,0c-10.97,0-21.15,5.62-27.09,14.65C53.57,5.62,43.38,0,32.41,0,13.03,0,0,13.02,0,32.39c0,21.09,6.52,46.93,54.9,78.64l4.6,2.97,4.62-2.98c48.36-31.7,54.88-57.54,54.88-78.63C119,13.02,105.97,0,86.59,0h0Zm-25.28,106.7l-1.81,1.17-1.79-1.15C11.4,76.35,5.16,52.11,5.16,32.39,5.16,15.84,15.85,5.15,32.41,5.15c10.59,0,20.3,6.23,24.74,15.88l.1,.22c-3.14,1.72-14.96,8.68-14.74,15.93,.13,4.36,4.5,4.59,7.54,6.08,3.84,1.89,4.59,3.05,5.58,4.61,1.02,1.61,2.14,5.58-4.17,5.58-4.01,0-4.63,1.9-4.63,1.9-1.53,2.25,2.81,5.64,8.08,5.18,1.29-.11,2.17-.05,2.72,.04-.68,.53-2.03,1.33-4.52,2.21-.67,.24-2.45,.87-2.62,2.52-.18,1.69,1.34,2.63,2.95,3.64,1.69,1.05,2.54,1.75,2.53,2.06,0,0-.17,.89-3.19,2.41-3.41,1.72-4,4.17-4.05,5.47-.09,2.38,1.37,4.76,3.79,6.22,1.33,.8,2.78,1.2,4.19,1.2,1.27,0,2.52-.32,3.64-.98,9.66-5.61,21.33-14.71,24.97-21.22,2.46-4.4,3.67-5.5,4.67-12.55,.28-2.02,1.09-4,1.81-6.2,.37-1.13,1.01-2.18,1.6-1.99,1.17,.37,2.47,2.08,1.44,7.72-.98,5.35-1.14,8.82,1.23,9.9,.7,.32,3.17,1.04,5.7-3,.5-.8,1.1-1.61,1.73-2.46,2.9-3.92,6.5-8.8,4.52-18.1-.35-1.62,.6-2.86,1.51-3.42,.38-.23,1.7-.92,2.9,.04,.54,.43,1,1.14,1.33,2.15,1.79,18.81-9.08,42.08-52.45,70.52h0ZM35.27,39.9c.57,.76,.42,1.83-.34,2.4-4.57,3.45-9.13,4.28-12.48,4.28-3,0-5.03-.67-5.2-.73-.9-.31-1.38-1.29-1.06-2.18,.31-.9,1.29-1.37,2.18-1.07,.3,.1,7.33,2.36,14.49-3.04,.76-.57,1.83-.42,2.41,.34h0Zm38.71-6.27c-5.34,0-9.04-3.05-10.54-5.26-.53-.78-.33-1.85,.46-2.39,.78-.53,1.85-.33,2.38,.45,.18,.26,4.59,6.41,13.27,2.44,.86-.4,1.88-.02,2.28,.84,.4,.86,.02,1.88-.84,2.28-2.56,1.18-4.91,1.65-7,1.65h0Z"/></svg>