<?xml version="1.0" encoding="UTF-8"?><svg id="Layer_1" xmlns="http://www.w3.org/2000/svg" viewBox="0 0 119 152"><defs><style>.cls-1{fill:#d11249;}</style></defs><path class="cls-1" d="M88.99,95.63c6.16,2.83,13.17,2.22,13.17,2.22,0,0,19.69-4.19,16.49-25.97-3.2-21.78-16.37-36.8-16.37-36.8,0,0-2.58,12.68-4.8,19.57-2.22,6.89-7.26,13.66-7.26,13.66,0,0-2.83,4.06-5.05,1.97-2.21-2.09,4.31-10.34,4.31-10.34,0,0,12.8-23.26,7.88-32.49-8-13.42-20.68-15.02-20.68-15.02,4.8,4.18,2.34,25.23,2.34,25.23,0,0-1.85,15.51-8.12,16-6.28,.49-2.58-6.52-2.58-6.52,5.05-11.57,5.91-28.31,5.91-28.31,0,0,.37-4.18-1.48-8.12-1.85-3.94-8.37-5.79-12.19-5.41-3.82,.37-15.02-1.11-15.02-1.11,9.11,11.69,7.26,25.48,7.26,25.48,0,0,0,3.94-1.72,6.03-1.72,2.09-3.69-1.97-3.69-1.97,0,0-.98-6.03-1.35-15.38-.37-9.35-5.79-12.92-5.79-12.92,0,0-4.8-2.95-12.19-1.72C20.68,4.93,13.05,0,13.05,0c3.69,7.38-6.52,29.79-6.52,29.79,0,0-3.82,8.74-2.09,12.06,1.73,3.32,5.05,6.89,13.17,8.25,8.13,1.35,17.11,.74,17.11,.74,0,0,6.89-1.23,10.71,.61,3.82,1.84-1.48,5.29-1.48,5.29,0,0-4.81,2.46-16.62,2.71-11.82,.25-27.32-11.2-27.32-11.2,1.72,14.77,10.58,28.06,10.58,28.06,2.95,12.31,11.57,21.91,11.57,21.91,0,0,.98,1.48,9.72,1.23,8.74-.25,24-4.06,24-4.06,0,0,5.79-2.22,7.76-1.6,1.97,.62-.49,2.83-.49,2.83,0,0-2.83,3.81-15.63,5.29-12.8,1.48-22.89,1.36-22.89,1.36,3.94,8.12,13.42,14.77,13.42,14.77,0,0,14.77,10.71,31.63,7.26,16.86-3.45,17.72-21.05,17.72-21.05l18.83,46.77,3.08-3.2s-16.62-41.85-20.31-48.13c-3.69-6.28,0-4.06,0-4.06h0ZM24.01,39.21s-5.57-2.53,2.31-4.45c7.88-1.91,8.31,3.44,8.31,3.44-1.5,7.42-10.62,1.01-10.62,1.01Zm17.45,38.84s18.36-3.5,19.61-.38c1.26,3.12-11.31,4.66-19.61,.38Zm34.19,33.35c-2.2,2.34-6.45,2-7.01,1.63-.11-.07-.19-.16-.25-.27-.55-1.02-1.59-9.32,4.69-13.17,4.55-2.83,5.65,3.2,5.65,3.2,.49,1.52-.12,5.47-3.08,8.62h0Zm5.33-50.96c-4,4.31-3.29,6.52-6.59,5.38-1.89-.65-.04-2.43-.04-2.43,0,0,2.77-2.39,3.6-6.59,.83-4.2,3.61-2.62,3.61-2.62,0,0,3.42,1.95-.58,6.26h0Z"/></svg>