<?xml version="1.0" encoding="UTF-8"?><svg id="Layer_1" xmlns="http://www.w3.org/2000/svg" viewBox="0 0 119 151"><defs><style>.cls-1{fill:#d11249;}</style></defs><path class="cls-1" d="M53.2,116.76c-.18-1.48-1.48-2.6-2.97-2.41-1.48,.19-2.59,1.48-2.41,2.97l1.3,14.64c.18,1.67-.19,3.15-.74,4.63-1.3,2.97-3.89,7.78-8.16,8.15-8.34,.56-20.39,.56-20.57,.56-14.09,.37-14.09-.93-14.27-4.82-.18-6.3,7.23-35.21,9.27-42.07,1.67-5.75,7.78-15.57,17.24-17.42,2.22-.37,4.26-.18,6.49,.93,4.45,2.04,7.41,6.67,7.78,12.05,.19,1.48,1.48,2.59,2.97,2.59,1.48-.19,2.59-1.48,2.59-2.97-.56-7.23-4.63-13.53-10.93-16.49-3.15-1.48-6.49-2.04-9.82-1.3-11.86,2.41-19.27,13.9-21.5,21.31-.19,.37-9.82,35.4-9.45,43.74,.37,8.9,6.3,10.01,15.01,10.01h4.82c.56,0,12.42,0,20.94-.56,5.37-.37,10.01-4.45,12.79-11.49,.93-2.22,1.3-4.82,1.11-7.23l-1.48-14.82Z"/><path class="cls-1" d="M109.36,96.93c-2.04-7.23-9.45-18.9-21.5-21.31-3.34-.74-6.67-.19-9.82,1.3-6.12,2.97-10.38,9.27-10.93,16.5-.19,1.48,.93,2.78,2.59,2.97,1.48,.19,2.78-.93,2.97-2.59,.37-5.19,3.34-9.82,7.78-12.05,2.22-1.11,4.26-1.3,6.49-.93,9.45,1.85,15.57,11.68,17.24,17.42,2.04,6.86,9.45,35.77,9.27,42.07-.18,3.89-.18,5-14.27,4.82-.19,0-12.23,0-20.57-.56-4.26-.37-6.86-5.19-8.16-8.15-.56-1.48-.93-3.15-.74-4.63l1.3-14.64c.18-1.48-.93-2.78-2.41-2.97-1.48-.18-2.78,.93-2.97,2.41l-1.3,14.64c-.18,2.41,.19,5,1.11,7.23,2.97,7.04,7.41,11.12,12.79,11.49,8.52,.56,20.39,.56,20.94,.56h4.82c8.71,0,14.64-1.11,15.01-10.01,.18-8.16-9.45-43.18-9.64-43.56h0Z"/><path class="cls-1" d="M77.3,112.31c.56,.19,1.11,.19,1.67,.19h.37c.93,.18,1.85,.56,2.59,.93,.18,.19,.37,.37,.56,.37,.74,.37,1.3,.93,1.85,1.67,1.3,1.48,1.85,3.34,1.85,5.19v1.48c-.37,2.59-2.04,4.82-4.45,6.12-1.3,.74-1.85,2.22-1.3,3.71,.56,.93,1.48,1.48,2.41,1.48,.37,0,.74,0,1.11-.18,4.08-2.04,6.86-5.75,7.6-10.19,.18-.74,.18-1.3,.18-2.04,0-3.34-1.11-6.3-2.97-8.71,2.41,0,4.63,.93,6.3,2.6,1.85,2.04,2.59,4.63,2.04,7.41-.37,1.48,.56,2.97,2.04,3.34h.56c1.3,0,2.41-.93,2.59-2.22,.93-4.45-.37-8.9-3.34-12.23-2.22-2.41-5.19-3.89-8.34-4.26,1.11-1.67,2.04-3.52,2.41-5.75,.93-5.37-1.48-10.75-5.93-13.71-1.3-.74-2.97-.56-3.71,.74-.74,1.3-.56,2.97,.74,3.71,2.78,1.85,4.08,5,3.52,8.34-.74,4.45-5,7.41-9.45,6.67-10.01-.93-15.01-10.56-15.94-12.6v-20.2h2.59c12.23,0,22.24-10.01,22.24-22.24,0-1.48-1.3-2.78-2.78-2.78h-5.56c-6.49,0-12.6,2.97-16.68,7.6v-6.86c3.15-.93,5.75-3.34,6.86-6.49,1.11,.37,2.41,.74,3.52,.74,5.37,0,9.82-4.45,9.82-9.82,0-2.97-1.48-5.75-3.52-7.6,3.15-1.67,5.19-4.82,5.19-8.52,0-5.37-4.45-9.82-9.82-9.82-1.67,0-3.34,.56-4.63,1.3-.37-5.38-4.63-9.64-10.01-9.64s-9.64,4.26-9.82,9.64c-1.48-.74-2.97-1.3-4.63-1.3-5.37,0-9.82,4.45-9.82,9.82,0,3.71,2.04,6.86,5.19,8.52-2.22,1.85-3.52,4.45-3.52,7.6,0,5.37,4.45,9.82,9.82,9.82,1.3,0,2.59-.19,3.71-.74,.93,2.97,3.34,5.37,6.49,6.3v7.04c-4.26-4.82-10.19-7.6-16.68-7.6h-5.56c-1.48,0-2.78,1.3-2.78,2.78,0,12.23,10.01,22.24,22.24,22.24h2.78v20.02c-.93,2.22-5.93,11.86-15.94,12.6-4.45,.74-8.71-2.22-9.45-6.67-.56-3.15,.93-6.49,3.52-8.34,1.3-.74,1.67-2.59,.74-3.71-.74-1.3-2.59-1.67-3.71-.74-4.63,2.97-6.86,8.34-5.93,13.71,.37,2.22,1.3,4.08,2.41,5.75-3.15,.37-6.12,1.85-8.34,4.26-2.97,3.34-4.26,7.78-3.34,12.23,.37,1.3,1.48,2.22,2.59,2.22h.56c1.48-.37,2.41-1.85,2.04-3.34-.56-2.6,.19-5.37,2.04-7.41,1.67-1.85,3.89-2.78,6.3-2.6-1.85,2.41-2.97,5.56-2.97,8.71,0,.74,0,1.3,.18,2.04,.74,4.45,3.52,8.15,7.6,10.19,.37,.19,.74,.19,1.11,.19,.93,0,2.04-.56,2.41-1.48,.74-1.3,.18-2.97-1.3-3.71-2.41-1.11-4.08-3.52-4.45-6.12v-1.48c0-1.85,.74-3.71,1.85-5.19,.56-.56,1.11-1.11,1.85-1.67,.19-.19,.37-.19,.56-.37,.74-.37,1.67-.74,2.59-.93h.37c.56,0,1.11,0,1.67-.18,9.27-.93,15.01-7.23,17.98-11.86,2.41,4.82,8.15,11.12,17.42,12.05h0Zm1.48-57.64h2.59c-1.48,7.97-8.34,13.9-16.49,13.9h-2.59c1.48-8.16,8.34-13.9,16.49-13.9Zm-25.02,13.9c-8.16,0-15.01-5.93-16.5-13.9h2.59c8.16,0,15.01,5.93,16.49,13.9h-2.59Zm.37-43.37c0-2.97,2.41-5.37,5.37-5.37s5.37,2.41,5.37,5.37-2.41,5.37-5.37,5.37-5.37-2.41-5.37-5.37Zm9.64-15.38c0,2.41-2.04,4.45-4.45,4.45s-4.45-2.04-4.45-4.45,2.04-4.45,4.45-4.45c2.59,0,4.45,2.04,4.45,4.45h0Zm8.71,28.91c-2.41,0-4.45-2.04-4.45-4.45s2.04-4.45,4.45-4.45,4.45,2.04,4.45,4.45c0,2.41-2.04,4.45-4.45,4.45Zm1.48-25.02c2.41,0,4.45,2.04,4.45,4.45s-2.04,4.45-4.45,4.45-4.45-2.04-4.45-4.45,2.04-4.45,4.45-4.45Zm-29.1,0c2.41,0,4.45,2.04,4.45,4.45s-2.04,4.45-4.45,4.45-4.45-2.04-4.45-4.45c0-2.41,2.04-4.45,4.45-4.45Zm1.67,25.02c-2.41,0-4.45-2.04-4.45-4.45s2.04-4.45,4.45-4.45,4.45,2.04,4.45,4.45-2.04,4.45-4.45,4.45Zm8.52,1.67c0-2.41,2.04-4.45,4.45-4.45s4.45,2.04,4.45,4.45-2.04,4.45-4.45,4.45-4.45-2.04-4.45-4.45Z"/></svg>