<?xml version="1.0" encoding="UTF-8"?><svg id="Layer_1" xmlns="http://www.w3.org/2000/svg" viewBox="0 0 119 124"><defs><style>.cls-1{fill:#d11249;}</style></defs><path class="cls-1" d="M75.19,22h.02v.04h-.02v-.04Z"/><path class="cls-1" d="M91.77,18.3h11.1v11.1h-11.1v-11.1Z"/><path class="cls-1" d="M107.9,29.14h11.1v11.1h-11.1v-11.1Z"/><path class="cls-1" d="M99.32,89.36h11.1v11.1h-11.1v-11.1Z"/><path class="cls-1" d="M91.47,67.78h11.1v11.1h-11.1v-11.1Z"/><path class="cls-1" d="M80.81,82.4h11.1v11.1h-11.1v-11.1Z"/><path class="cls-1" d="M77.88,10.31h11.1v11.1h-11.1V10.31Z"/><path class="cls-1" d="M92.46,42.36h11.1v11.1h-11.1v-11.1Z"/><path class="cls-1" d="M79.17,53h11.1v11.1h-11.1v-11.1Z"/><path class="cls-1" d="M78.43,77.58v-11.11h-11.11v11.11h11.11Z"/><path class="cls-1" d="M91.83,119.9c-1.98-6.57-3.38-13.31-4.17-20.13h-12.5v-11.1h-11.1v-11.1h-11.1v-11.1h11.1v-11.2h11.11v-11.05h11.1v-11.1h-11.09v-11.07h-11.13V10.93l11.12-.03V3.04C69.87,1.32,64.35,.33,58.78,.08,31.55-1.33,8.24,16.16,8.99,40.28c.1,3.18,.66,7.87,.64,10.93C9.6,62.09,.19,66.56,0,70.02c-.3,5.69,6.38,3.91,8.74,11.95,2.99,10.21-1.3,21.86,12.62,21.14,5.55-.22,14.58-2.38,18.44,1.22,2.47,2.29,4.45,12.3,5.23,16.73h0c.22,1.23,1.28,2.12,2.53,2.12h41.79c.81,0,1.57-.38,2.06-1.02,.49-.64,.64-1.48,.42-2.26h0ZM42.59,33.15h-11.1v-11.11h11.1v11.11Zm11.09-6.86h11.1v11.1h-11.1v-11.1Zm-8.31,26.09v-11.1h11.1v11.1h-11.1Zm13.99,50.02h-11.1v-11.1h11.1v11.1Z"/></svg>